# xmcd CD database file
#
# Track frame offsets:
#	150
#	22358
#	48477
#	72436
#	93108
#	123444
#	160316
#	184941
#	203622
#	218222
#	243032
#	270182
#	288409
#	304964
#
# Disc length: 4243 seconds
#
# Revision: 2
# Processed by: cddbd v1.5.2PL0 Copyright (c) Steve Scherf et al.
# Submitted via: CDex 1.51
#
DISCID=c910910e
DTITLE=Matthias Reim - Unendlich Live CD 2 [LC00193]
DYEAR=2013
DGENRE=Schlager
TTITLE0=Ganz egal (live)
TTITLE1=Schwanenkoenig (live)
TTITLE2=Ueber sieben Bruecken (live)
TTITLE3=Ich liebe dich (live)
TTITLE4=Jedes Bild (live)
TTITLE5=Party Block 2013: Deine Liebe - Es tut mir ueberhaupt nicht weh - Ich will dich immer Noch -  Kuessen oder so (live)
TTITLE6=Ich hab getraeumt von dir (live)
TTITLE7=Traeumer (live)
TTITLE8=Egal was soll's (live)
TTITLE9=Wir sind unendlich (Live)
TTITLE10=Verdammt, ich lieb dich (live)
TTITLE11=Irgendwo da drauﬂen (STUDIO VERSION)
TTITLE12=Du bist wie ein Magnet (STUDIO VERSION)
TTITLE13=Blinder Passagier (STUDIO VERSION)
EXTD=YEAR: 2013
EXTT0=
EXTT1=
EXTT2=
EXTT3=
EXTT4=
EXTT5=
EXTT6=
EXTT7=
EXTT8=
EXTT9=
EXTT10=
EXTT11=
EXTT12=
EXTT13=
PLAYORDER=
